<mxfile host="Electron" agent="Mozilla/5.0 (Macintosh; Intel Mac OS X 10_15_7) AppleWebKit/537.36 (KHTML, like Gecko) draw.io/24.7.17 Chrome/128.0.6613.36 Electron/32.0.1 Safari/537.36" version="24.7.17">
  <diagram name="Page-1" id="R4ktWd06gWdG8Op7dIjw">
    <mxGraphModel dx="2185" dy="1402" grid="0" gridSize="10" guides="1" tooltips="1" connect="1" arrows="1" fold="1" page="0" pageScale="1" pageWidth="1169" pageHeight="827" math="1" shadow="0">
      <root>
        <mxCell id="0" />
        <mxCell id="1" parent="0" />
        <mxCell id="THp-xBTpYDyNpZLvBcsf-3" style="edgeStyle=none;curved=1;rounded=0;orthogonalLoop=1;jettySize=auto;html=1;exitX=0.5;exitY=1;exitDx=0;exitDy=0;fontSize=12;startSize=8;endSize=8;shadow=0;sketch=1;curveFitting=1;jiggle=2;endArrow=none;endFill=0;" parent="1" source="THp-xBTpYDyNpZLvBcsf-1" edge="1">
          <mxGeometry relative="1" as="geometry">
            <mxPoint x="-117" y="1061" as="targetPoint" />
          </mxGeometry>
        </mxCell>
        <mxCell id="THp-xBTpYDyNpZLvBcsf-1" value="&lt;font style=&quot;font-size: 18px;&quot; face=&quot;Comic Sans MS&quot;&gt;Client&lt;/font&gt;" style="rounded=1;whiteSpace=wrap;html=1;sketch=1;curveFitting=1;jiggle=2;" parent="1" vertex="1">
          <mxGeometry x="-189" y="4" width="144" height="47" as="geometry" />
        </mxCell>
        <mxCell id="THp-xBTpYDyNpZLvBcsf-2" value="&lt;font face=&quot;Comic Sans MS&quot;&gt;&lt;span style=&quot;font-size: 18px;&quot;&gt;Server&lt;/span&gt;&lt;/font&gt;" style="rounded=1;whiteSpace=wrap;html=1;sketch=1;curveFitting=1;jiggle=2;" parent="1" vertex="1">
          <mxGeometry x="62" y="4" width="144" height="47" as="geometry" />
        </mxCell>
        <mxCell id="THp-xBTpYDyNpZLvBcsf-4" style="edgeStyle=none;curved=1;rounded=0;orthogonalLoop=1;jettySize=auto;html=1;exitX=0.5;exitY=1;exitDx=0;exitDy=0;fontSize=12;startSize=8;endSize=8;shadow=0;sketch=1;curveFitting=1;jiggle=2;endArrow=none;endFill=0;" parent="1" edge="1">
          <mxGeometry relative="1" as="geometry">
            <mxPoint x="134" y="1059" as="targetPoint" />
            <mxPoint x="133.5" y="51" as="sourcePoint" />
          </mxGeometry>
        </mxCell>
        <mxCell id="THp-xBTpYDyNpZLvBcsf-5" value="" style="endArrow=classic;html=1;rounded=0;fontSize=12;startSize=8;endSize=8;curved=1;sketch=1;curveFitting=1;jiggle=2;entryX=1;entryY=1;entryDx=0;entryDy=0;" parent="1" edge="1" target="THp-xBTpYDyNpZLvBcsf-6">
          <mxGeometry width="50" height="50" relative="1" as="geometry">
            <mxPoint x="-115" y="184" as="sourcePoint" />
            <mxPoint x="244" y="182" as="targetPoint" />
          </mxGeometry>
        </mxCell>
        <mxCell id="THp-xBTpYDyNpZLvBcsf-6" value="&lt;p class=&quot;p1&quot; style=&quot;margin: 0px; font-variant-numeric: normal; font-variant-east-asian: normal; font-variant-alternates: normal; font-size-adjust: none; font-kerning: auto; font-optical-sizing: auto; font-feature-settings: normal; font-variation-settings: normal; font-variant-position: normal; font-stretch: normal; line-height: normal; text-align: start; font-size: 15px;&quot;&gt;&lt;font style=&quot;font-size: 15px;&quot; face=&quot;Comic Sans MS&quot;&gt;&lt;span style=&quot;color: rgb(31, 35, 40); background-color: initial;&quot;&gt;ClientHello:&amp;nbsp;&lt;/span&gt;&lt;font style=&quot;font-size: 15px;&quot;&gt;Cipher suites, R_a, X&lt;/font&gt;&lt;/font&gt;&lt;/p&gt;" style="text;html=1;align=center;verticalAlign=middle;whiteSpace=wrap;rounded=0;fontSize=16;" parent="1" vertex="1">
          <mxGeometry x="-116" y="152" width="247" height="30" as="geometry" />
        </mxCell>
        <mxCell id="-IRD3xmq3QLjEIi70Ust-2" value="" style="endArrow=none;html=1;rounded=0;fontSize=12;startSize=8;endSize=8;curved=1;sketch=1;curveFitting=1;jiggle=2;startArrow=classic;startFill=1;endFill=0;entryX=1;entryY=1;entryDx=0;entryDy=0;" edge="1" parent="1">
          <mxGeometry width="50" height="50" relative="1" as="geometry">
            <mxPoint x="-115" y="311" as="sourcePoint" />
            <mxPoint x="134.99999999999955" y="309" as="targetPoint" />
          </mxGeometry>
        </mxCell>
        <mxCell id="-IRD3xmq3QLjEIi70Ust-3" value="&lt;p class=&quot;p1&quot; style=&quot;margin: 0px; font-variant-numeric: normal; font-variant-east-asian: normal; font-variant-alternates: normal; font-size-adjust: none; font-kerning: auto; font-optical-sizing: auto; font-feature-settings: normal; font-variation-settings: normal; font-variant-position: normal; font-stretch: normal; line-height: normal; text-align: start; font-size: 15px;&quot;&gt;&lt;font style=&quot;font-size: 15px;&quot; face=&quot;Comic Sans MS&quot;&gt;&lt;span style=&quot;color: rgb(31, 35, 40); background-color: initial;&quot;&gt;ServerHello:&lt;/span&gt;&lt;font style=&quot;font-size: 15px;&quot;&gt;Cipher choose, R_b, Y&lt;/font&gt;&lt;/font&gt;&lt;/p&gt;" style="text;html=1;align=center;verticalAlign=middle;whiteSpace=wrap;rounded=0;fontSize=16;" vertex="1" parent="1">
          <mxGeometry x="-116" y="280" width="251" height="30" as="geometry" />
        </mxCell>
        <mxCell id="-IRD3xmq3QLjEIi70Ust-4" value="" style="endArrow=classic;html=1;rounded=0;sketch=1;curveFitting=1;jiggle=2;" edge="1" parent="1">
          <mxGeometry width="50" height="50" relative="1" as="geometry">
            <mxPoint x="-116" y="352" as="sourcePoint" />
            <mxPoint x="-116" y="401" as="targetPoint" />
            <Array as="points">
              <mxPoint x="-277" y="354" />
              <mxPoint x="-277" y="401" />
            </Array>
          </mxGeometry>
        </mxCell>
        <mxCell id="-IRD3xmq3QLjEIi70Ust-5" value="&lt;p class=&quot;p1&quot; style=&quot;margin: 0px; font-variant-numeric: normal; font-variant-east-asian: normal; font-variant-alternates: normal; font-size-adjust: none; font-kerning: auto; font-optical-sizing: auto; font-feature-settings: normal; font-variation-settings: normal; font-variant-position: normal; font-stretch: normal; line-height: normal; text-align: start;&quot;&gt;&lt;font style=&quot;font-size: 15px;&quot; face=&quot;Comic Sans MS&quot;&gt;$$S=Y^X$$&lt;/font&gt;&lt;/p&gt;" style="text;html=1;align=center;verticalAlign=middle;whiteSpace=wrap;rounded=0;fontSize=16;" vertex="1" parent="1">
          <mxGeometry x="-201" y="324" width="79" height="32" as="geometry" />
        </mxCell>
        <mxCell id="-IRD3xmq3QLjEIi70Ust-6" value="" style="endArrow=classic;html=1;rounded=0;sketch=1;curveFitting=1;jiggle=2;" edge="1" parent="1">
          <mxGeometry width="50" height="50" relative="1" as="geometry">
            <mxPoint x="133" y="309" as="sourcePoint" />
            <mxPoint x="133" y="358" as="targetPoint" />
            <Array as="points">
              <mxPoint x="294" y="311" />
              <mxPoint x="294" y="358" />
            </Array>
          </mxGeometry>
        </mxCell>
        <mxCell id="-IRD3xmq3QLjEIi70Ust-7" value="&lt;p class=&quot;p1&quot; style=&quot;margin: 0px; font-variant-numeric: normal; font-variant-east-asian: normal; font-variant-alternates: normal; font-size-adjust: none; font-kerning: auto; font-optical-sizing: auto; font-feature-settings: normal; font-variation-settings: normal; font-variant-position: normal; font-stretch: normal; line-height: normal; text-align: start;&quot;&gt;&lt;font style=&quot;font-size: 15px;&quot; face=&quot;Comic Sans MS&quot;&gt;$$S=X^Y$$&lt;/font&gt;&lt;/p&gt;" style="text;html=1;align=center;verticalAlign=middle;whiteSpace=wrap;rounded=0;fontSize=16;" vertex="1" parent="1">
          <mxGeometry x="279" y="283.5" width="81" height="25" as="geometry" />
        </mxCell>
        <mxCell id="-IRD3xmq3QLjEIi70Ust-8" value="" style="endArrow=classic;html=1;rounded=0;sketch=1;curveFitting=1;jiggle=2;fontFamily=Comic Sans MS;fontSize=12;" edge="1" parent="1">
          <mxGeometry width="50" height="50" relative="1" as="geometry">
            <mxPoint x="-116" y="96" as="sourcePoint" />
            <mxPoint x="-114" y="145" as="targetPoint" />
            <Array as="points">
              <mxPoint x="-277" y="98" />
              <mxPoint x="-277" y="145" />
            </Array>
          </mxGeometry>
        </mxCell>
        <mxCell id="-IRD3xmq3QLjEIi70Ust-9" value="&lt;p class=&quot;p1&quot; style=&quot;margin: 0px; font-variant-numeric: normal; font-variant-east-asian: normal; font-variant-alternates: normal; font-size-adjust: none; font-kerning: auto; font-optical-sizing: auto; font-feature-settings: normal; font-variation-settings: normal; font-variant-position: normal; font-stretch: normal; font-size: 15px; line-height: normal; color: rgb(14, 14, 14); text-align: start;&quot;&gt;Early_Secret = &lt;span style=&quot;&quot; class=&quot;hljs-built_in&quot;&gt;HKDF-Extract&lt;/span&gt;(Salt=&lt;span style=&quot;&quot; class=&quot;hljs-number&quot;&gt;0&lt;/span&gt;x00 * &lt;span style=&quot;&quot; class=&quot;hljs-number&quot;&gt;32&lt;/span&gt;, Input_Key_Material=PSK)&lt;br style=&quot;font-size: 12px;&quot;&gt;&lt;/p&gt;" style="text;html=1;align=center;verticalAlign=middle;whiteSpace=wrap;rounded=0;fontSize=12;fontFamily=Comic Sans MS;" vertex="1" parent="1">
          <mxGeometry x="-646" y="73" width="530" height="24" as="geometry" />
        </mxCell>
        <mxCell id="-IRD3xmq3QLjEIi70Ust-13" value="" style="endArrow=classic;html=1;rounded=0;sketch=1;curveFitting=1;jiggle=2;" edge="1" parent="1">
          <mxGeometry width="50" height="50" relative="1" as="geometry">
            <mxPoint x="-118" y="454" as="sourcePoint" />
            <mxPoint x="-116" y="503" as="targetPoint" />
            <Array as="points">
              <mxPoint x="-279" y="456" />
              <mxPoint x="-279" y="503" />
            </Array>
          </mxGeometry>
        </mxCell>
        <mxCell id="-IRD3xmq3QLjEIi70Ust-15" value="&lt;p style=&quot;margin: 0px; font-variant-numeric: normal; font-variant-east-asian: normal; font-variant-alternates: normal; font-size-adjust: none; font-kerning: auto; font-optical-sizing: auto; font-feature-settings: normal; font-variation-settings: normal; font-variant-position: normal; font-stretch: normal; line-height: normal; text-align: start; font-size: 15px;&quot; class=&quot;p1&quot;&gt;&lt;font style=&quot;font-size: 15px;&quot; face=&quot;Comic Sans MS&quot; color=&quot;#0e0e0e&quot;&gt;Handshake_Secret =&amp;nbsp;&lt;/font&gt;&lt;/p&gt;&lt;p style=&quot;margin: 0px; font-variant-numeric: normal; font-variant-east-asian: normal; font-variant-alternates: normal; font-size-adjust: none; font-kerning: auto; font-optical-sizing: auto; font-feature-settings: normal; font-variation-settings: normal; font-variant-position: normal; font-stretch: normal; line-height: normal; text-align: start; font-size: 15px;&quot; class=&quot;p1&quot;&gt;&lt;font style=&quot;font-size: 15px;&quot;&gt;&lt;font style=&quot;font-size: 15px;&quot; face=&quot;Comic Sans MS&quot;&gt;HMAC&lt;/font&gt;&lt;font style=&quot;font-size: 15px;&quot; face=&quot;Comic Sans MS&quot; color=&quot;#0e0e0e&quot;&gt;(Salt=Early_Secret,&amp;nbsp;&lt;/font&gt;&lt;/font&gt;&lt;span style=&quot;color: rgb(14, 14, 14); font-family: &amp;quot;Comic Sans MS&amp;quot;; background-color: initial;&quot;&gt;DH_shared_secret&lt;/span&gt;&lt;span style=&quot;color: rgb(14, 14, 14); font-family: &amp;quot;Comic Sans MS&amp;quot;; background-color: initial;&quot;&gt;)&lt;/span&gt;&lt;/p&gt;" style="text;html=1;align=center;verticalAlign=middle;whiteSpace=wrap;rounded=0;fontSize=16;" vertex="1" parent="1">
          <mxGeometry x="-402" y="411" width="242" height="41" as="geometry" />
        </mxCell>
        <mxCell id="-IRD3xmq3QLjEIi70Ust-16" value="" style="endArrow=classic;html=1;rounded=0;sketch=1;curveFitting=1;jiggle=2;" edge="1" parent="1">
          <mxGeometry width="50" height="50" relative="1" as="geometry">
            <mxPoint x="134" y="210" as="sourcePoint" />
            <mxPoint x="134" y="259" as="targetPoint" />
            <Array as="points">
              <mxPoint x="295" y="212" />
              <mxPoint x="295" y="259" />
            </Array>
          </mxGeometry>
        </mxCell>
        <mxCell id="-IRD3xmq3QLjEIi70Ust-17" value="&lt;p class=&quot;p1&quot; style=&quot;margin: 0px; font-variant-numeric: normal; font-variant-east-asian: normal; font-variant-alternates: normal; font-size-adjust: none; font-kerning: auto; font-optical-sizing: auto; font-feature-settings: normal; font-variation-settings: normal; font-variant-position: normal; font-stretch: normal; font-size: 15px; line-height: normal; color: rgb(14, 14, 14); text-align: start;&quot;&gt;Early_Secret = &lt;span style=&quot;&quot; class=&quot;hljs-built_in&quot;&gt;HKDF-Extract&lt;/span&gt;(Salt=&lt;span style=&quot;&quot; class=&quot;hljs-number&quot;&gt;0&lt;/span&gt;x00 * &lt;span style=&quot;&quot; class=&quot;hljs-number&quot;&gt;32&lt;/span&gt;, Input_Key_Material=PSK)&lt;br style=&quot;font-size: 12px;&quot;&gt;&lt;/p&gt;" style="text;html=1;align=center;verticalAlign=middle;whiteSpace=wrap;rounded=0;fontSize=12;fontFamily=Comic Sans MS;" vertex="1" parent="1">
          <mxGeometry x="134" y="176" width="529" height="38" as="geometry" />
        </mxCell>
        <mxCell id="-IRD3xmq3QLjEIi70Ust-18" value="" style="endArrow=classic;html=1;rounded=0;sketch=1;curveFitting=1;jiggle=2;" edge="1" parent="1">
          <mxGeometry width="50" height="50" relative="1" as="geometry">
            <mxPoint x="134" y="415" as="sourcePoint" />
            <mxPoint x="134" y="464" as="targetPoint" />
            <Array as="points">
              <mxPoint x="295" y="417" />
              <mxPoint x="295" y="464" />
            </Array>
          </mxGeometry>
        </mxCell>
        <mxCell id="-IRD3xmq3QLjEIi70Ust-19" value="" style="endArrow=classic;html=1;rounded=0;sketch=1;curveFitting=1;jiggle=2;" edge="1" parent="1">
          <mxGeometry width="50" height="50" relative="1" as="geometry">
            <mxPoint x="-117" y="572" as="sourcePoint" />
            <mxPoint x="-115" y="621" as="targetPoint" />
            <Array as="points">
              <mxPoint x="-278" y="574" />
              <mxPoint x="-278" y="621" />
            </Array>
          </mxGeometry>
        </mxCell>
        <mxCell id="-IRD3xmq3QLjEIi70Ust-20" value="&lt;p style=&quot;margin: 0px; font-variant-numeric: normal; font-variant-east-asian: normal; font-variant-alternates: normal; font-size-adjust: none; font-kerning: auto; font-optical-sizing: auto; font-feature-settings: normal; font-variation-settings: normal; font-variant-position: normal; font-stretch: normal; line-height: normal; text-align: start;&quot; class=&quot;p1&quot;&gt;&lt;font face=&quot;Comic Sans MS&quot; style=&quot;font-size: 16px;&quot;&gt;Client_Handshake_Traffic_Secret =&lt;/font&gt;&lt;/p&gt;&lt;p style=&quot;text-align: start; margin: 0px; font-variant-numeric: normal; font-variant-east-asian: normal; font-variant-alternates: normal; font-size-adjust: none; font-kerning: auto; font-optical-sizing: auto; font-feature-settings: normal; font-variation-settings: normal; font-variant-position: normal; font-stretch: normal; line-height: normal;&quot; class=&quot;p1&quot;&gt;&lt;span style=&quot;background-color: initial; text-align: center; font-size: 15px;&quot;&gt;&lt;font face=&quot;Comic Sans MS&quot;&gt;HMAC&lt;/font&gt;&lt;/span&gt;&lt;font face=&quot;Comic Sans MS&quot; style=&quot;&quot;&gt;&lt;span style=&quot;font-size: 15px;&quot;&gt;(Handshake_Secret, &quot;tls13 c hs traffic&quot;|| Hash(Handshake_Context))&lt;/span&gt;&lt;/font&gt;&lt;br&gt;&lt;/p&gt;" style="text;html=1;align=center;verticalAlign=middle;whiteSpace=wrap;rounded=0;fontSize=16;" vertex="1" parent="1">
          <mxGeometry x="-659" y="531" width="544" height="38" as="geometry" />
        </mxCell>
        <mxCell id="-IRD3xmq3QLjEIi70Ust-22" value="" style="endArrow=classic;html=1;rounded=0;sketch=1;curveFitting=1;jiggle=2;" edge="1" parent="1">
          <mxGeometry width="50" height="50" relative="1" as="geometry">
            <mxPoint x="-118" y="744" as="sourcePoint" />
            <mxPoint x="-116" y="793" as="targetPoint" />
            <Array as="points">
              <mxPoint x="-279" y="746" />
              <mxPoint x="-279" y="793" />
            </Array>
          </mxGeometry>
        </mxCell>
        <mxCell id="-IRD3xmq3QLjEIi70Ust-23" value="&lt;p style=&quot;margin: 0px; font-variant-numeric: normal; font-variant-east-asian: normal; font-variant-alternates: normal; font-size-adjust: none; font-kerning: auto; font-optical-sizing: auto; font-feature-settings: normal; font-variation-settings: normal; font-variant-position: normal; font-stretch: normal; line-height: normal; text-align: start;&quot; class=&quot;p1&quot;&gt;&lt;font face=&quot;Comic Sans MS&quot;&gt;Master_Secret =&amp;nbsp;&lt;/font&gt;&lt;/p&gt;&lt;p style=&quot;text-align: start; margin: 0px; font-variant-numeric: normal; font-variant-east-asian: normal; font-variant-alternates: normal; font-size-adjust: none; font-kerning: auto; font-optical-sizing: auto; font-feature-settings: normal; font-variation-settings: normal; font-variant-position: normal; font-stretch: normal; line-height: normal;&quot; class=&quot;p1&quot;&gt;&lt;span style=&quot;background-color: initial; text-align: center;&quot;&gt;&lt;font face=&quot;Comic Sans MS&quot;&gt;HMAC&lt;/font&gt;&lt;/span&gt;&lt;font face=&quot;Comic Sans MS&quot;&gt;(Salt=Handshake_Secret, Input_Key_Material=&quot;&quot;)&lt;/font&gt;&lt;br&gt;&lt;/p&gt;" style="text;html=1;align=center;verticalAlign=middle;whiteSpace=wrap;rounded=0;fontSize=16;" vertex="1" parent="1">
          <mxGeometry x="-555" y="697" width="439" height="41" as="geometry" />
        </mxCell>
        <mxCell id="-IRD3xmq3QLjEIi70Ust-24" value="" style="endArrow=none;html=1;rounded=0;fontSize=12;startSize=8;endSize=8;curved=1;sketch=1;curveFitting=1;jiggle=2;startArrow=classic;startFill=1;endFill=0;entryX=1;entryY=1;entryDx=0;entryDy=0;" edge="1" parent="1">
          <mxGeometry width="50" height="50" relative="1" as="geometry">
            <mxPoint x="-116" y="705" as="sourcePoint" />
            <mxPoint x="133.99999999999955" y="703" as="targetPoint" />
          </mxGeometry>
        </mxCell>
        <mxCell id="-IRD3xmq3QLjEIi70Ust-25" value="&lt;p class=&quot;p1&quot; style=&quot;text-align: start; margin: 0px; font-variant-numeric: normal; font-variant-east-asian: normal; font-variant-alternates: normal; font-size-adjust: none; font-kerning: auto; font-optical-sizing: auto; font-feature-settings: normal; font-variation-settings: normal; font-variant-position: normal; font-stretch: normal; line-height: normal;&quot;&gt;&lt;span style=&quot;background-color: initial; text-align: center; font-size: 15px;&quot;&gt;&lt;font face=&quot;Comic Sans MS&quot; color=&quot;#1f2328&quot;&gt;CertificateVerify,&amp;nbsp;&lt;/font&gt;&lt;/span&gt;&lt;font style=&quot;font-size: 15px;&quot; face=&quot;Comic Sans MS&quot; color=&quot;#1f2328&quot;&gt;Finished&lt;/font&gt;&lt;/p&gt;" style="text;html=1;align=center;verticalAlign=middle;whiteSpace=wrap;rounded=0;fontSize=16;" vertex="1" parent="1">
          <mxGeometry x="-117" y="674" width="251" height="30" as="geometry" />
        </mxCell>
        <mxCell id="-IRD3xmq3QLjEIi70Ust-26" value="" style="endArrow=classic;html=1;rounded=0;fontSize=12;startSize=8;endSize=8;curved=1;sketch=1;curveFitting=1;jiggle=2;entryX=1;entryY=1;entryDx=0;entryDy=0;" edge="1" target="-IRD3xmq3QLjEIi70Ust-27" parent="1">
          <mxGeometry width="50" height="50" relative="1" as="geometry">
            <mxPoint x="-116" y="670" as="sourcePoint" />
            <mxPoint x="243" y="668" as="targetPoint" />
          </mxGeometry>
        </mxCell>
        <mxCell id="-IRD3xmq3QLjEIi70Ust-27" value="&lt;p class=&quot;p1&quot; style=&quot;margin: 0px; font-variant-numeric: normal; font-variant-east-asian: normal; font-variant-alternates: normal; font-size-adjust: none; font-kerning: auto; font-optical-sizing: auto; font-feature-settings: normal; font-variation-settings: normal; font-variant-position: normal; font-stretch: normal; line-height: normal; text-align: start; font-size: 15px;&quot;&gt;&lt;font face=&quot;Comic Sans MS&quot; color=&quot;#1f2328&quot;&gt;Finished&lt;/font&gt;&lt;/p&gt;" style="text;html=1;align=center;verticalAlign=middle;whiteSpace=wrap;rounded=0;fontSize=16;" vertex="1" parent="1">
          <mxGeometry x="-117" y="638" width="247" height="30" as="geometry" />
        </mxCell>
        <mxCell id="-IRD3xmq3QLjEIi70Ust-28" value="&lt;span style=&quot;font-family: &amp;quot;Comic Sans MS&amp;quot;; font-size: 15px; text-align: start;&quot;&gt;Handshake_Context = ClientHello||ServerHello&lt;/span&gt;" style="text;html=1;align=center;verticalAlign=middle;whiteSpace=wrap;rounded=0;" vertex="1" parent="1">
          <mxGeometry x="-647" y="199" width="358" height="28" as="geometry" />
        </mxCell>
        <mxCell id="-IRD3xmq3QLjEIi70Ust-29" value="&lt;p style=&quot;margin: 0px; font-variant-numeric: normal; font-variant-east-asian: normal; font-variant-alternates: normal; font-size-adjust: none; font-kerning: auto; font-optical-sizing: auto; font-feature-settings: normal; font-variation-settings: normal; font-variant-position: normal; font-stretch: normal; line-height: normal; text-align: start; font-size: 15px;&quot; class=&quot;p1&quot;&gt;&lt;font style=&quot;font-size: 15px;&quot; face=&quot;Comic Sans MS&quot; color=&quot;#0e0e0e&quot;&gt;Handshake_Secret =&amp;nbsp;&lt;/font&gt;&lt;/p&gt;&lt;p style=&quot;margin: 0px; font-variant-numeric: normal; font-variant-east-asian: normal; font-variant-alternates: normal; font-size-adjust: none; font-kerning: auto; font-optical-sizing: auto; font-feature-settings: normal; font-variation-settings: normal; font-variant-position: normal; font-stretch: normal; line-height: normal; text-align: start; font-size: 15px;&quot; class=&quot;p1&quot;&gt;&lt;font style=&quot;font-size: 15px;&quot;&gt;&lt;font style=&quot;font-size: 15px;&quot; face=&quot;Comic Sans MS&quot;&gt;HMAC&lt;/font&gt;&lt;font style=&quot;font-size: 15px;&quot; face=&quot;Comic Sans MS&quot; color=&quot;#0e0e0e&quot;&gt;(Salt=Early_Secret,&amp;nbsp;&lt;/font&gt;&lt;/font&gt;&lt;span style=&quot;color: rgb(14, 14, 14); font-family: &amp;quot;Comic Sans MS&amp;quot;; background-color: initial;&quot;&gt;DH_shared_secret&lt;/span&gt;&lt;span style=&quot;color: rgb(14, 14, 14); font-family: &amp;quot;Comic Sans MS&amp;quot;; background-color: initial;&quot;&gt;)&lt;/span&gt;&lt;/p&gt;" style="text;html=1;align=center;verticalAlign=middle;whiteSpace=wrap;rounded=0;fontSize=16;" vertex="1" parent="1">
          <mxGeometry x="194" y="367" width="216" height="44" as="geometry" />
        </mxCell>
        <mxCell id="-IRD3xmq3QLjEIi70Ust-30" value="" style="endArrow=none;html=1;rounded=0;fontSize=12;startSize=8;endSize=8;curved=1;sketch=1;curveFitting=1;jiggle=2;startArrow=classic;startFill=1;endFill=0;entryX=1;entryY=1;entryDx=0;entryDy=0;" edge="1" parent="1">
          <mxGeometry width="50" height="50" relative="1" as="geometry">
            <mxPoint x="-114" y="600" as="sourcePoint" />
            <mxPoint x="135.99999999999955" y="598" as="targetPoint" />
          </mxGeometry>
        </mxCell>
        <mxCell id="-IRD3xmq3QLjEIi70Ust-31" value="&lt;p class=&quot;p1&quot; style=&quot;margin: 0px; font-variant-numeric: normal; font-variant-east-asian: normal; font-variant-alternates: normal; font-size-adjust: none; font-kerning: auto; font-optical-sizing: auto; font-feature-settings: normal; font-variation-settings: normal; font-variant-position: normal; font-stretch: normal; line-height: normal; text-align: start;&quot;&gt;&lt;font face=&quot;Comic Sans MS&quot; color=&quot;#1f2328&quot;&gt;&lt;span style=&quot;font-size: 15px;&quot;&gt;Certificate&lt;/span&gt;&lt;/font&gt;&lt;br&gt;&lt;/p&gt;" style="text;html=1;align=center;verticalAlign=middle;whiteSpace=wrap;rounded=0;fontSize=16;" vertex="1" parent="1">
          <mxGeometry x="-115" y="569" width="251" height="30" as="geometry" />
        </mxCell>
        <mxCell id="-IRD3xmq3QLjEIi70Ust-32" value="" style="endArrow=classic;html=1;rounded=0;sketch=1;curveFitting=1;jiggle=2;" edge="1" parent="1">
          <mxGeometry width="50" height="50" relative="1" as="geometry">
            <mxPoint x="136" y="525.5" as="sourcePoint" />
            <mxPoint x="136" y="574.5" as="targetPoint" />
            <Array as="points">
              <mxPoint x="297" y="527.5" />
              <mxPoint x="297" y="574.5" />
            </Array>
          </mxGeometry>
        </mxCell>
        <mxCell id="-IRD3xmq3QLjEIi70Ust-33" value="&lt;p style=&quot;text-align: start; margin: 0px; font-variant-numeric: normal; font-variant-east-asian: normal; font-variant-alternates: normal; font-size-adjust: none; font-kerning: auto; font-optical-sizing: auto; font-feature-settings: normal; font-variation-settings: normal; font-variant-position: normal; font-stretch: normal; line-height: normal;&quot; class=&quot;p1&quot;&gt;&lt;span style=&quot;background-color: initial; text-align: center;&quot;&gt;&lt;font face=&quot;Comic Sans MS&quot;&gt;Server_Handshake_Traffic_Secret&amp;nbsp;&lt;/font&gt;&lt;/span&gt;&lt;font face=&quot;Comic Sans MS&quot; style=&quot;font-size: 16px;&quot;&gt;&amp;nbsp;=&lt;/font&gt;&lt;/p&gt;&lt;p style=&quot;text-align: center; margin: 0px; font-variant-numeric: normal; font-variant-east-asian: normal; font-variant-alternates: normal; font-size-adjust: none; font-kerning: auto; font-optical-sizing: auto; font-feature-settings: normal; font-variation-settings: normal; font-variant-position: normal; font-stretch: normal; line-height: normal;&quot; class=&quot;p1&quot;&gt;&lt;font face=&quot;Comic Sans MS&quot;&gt;&lt;span style=&quot;font-size: 15px;&quot;&gt;HMAC(Handshake_Secret, &quot;tls13 s hs traffic&quot; || Hash(Handshake_Context))&lt;/span&gt;&lt;/font&gt;&lt;br&gt;&lt;/p&gt;" style="text;html=1;align=center;verticalAlign=middle;whiteSpace=wrap;rounded=0;fontSize=16;" vertex="1" parent="1">
          <mxGeometry x="135" y="485" width="544" height="38" as="geometry" />
        </mxCell>
        <mxCell id="-IRD3xmq3QLjEIi70Ust-34" value="" style="endArrow=classic;html=1;rounded=0;sketch=1;curveFitting=1;jiggle=2;" edge="1" parent="1">
          <mxGeometry width="50" height="50" relative="1" as="geometry">
            <mxPoint x="136" y="751" as="sourcePoint" />
            <mxPoint x="136" y="800" as="targetPoint" />
            <Array as="points">
              <mxPoint x="297" y="753" />
              <mxPoint x="297" y="800" />
            </Array>
          </mxGeometry>
        </mxCell>
        <mxCell id="-IRD3xmq3QLjEIi70Ust-35" value="&lt;p style=&quot;margin: 0px; font-variant-numeric: normal; font-variant-east-asian: normal; font-variant-alternates: normal; font-size-adjust: none; font-kerning: auto; font-optical-sizing: auto; font-feature-settings: normal; font-variation-settings: normal; font-variant-position: normal; font-stretch: normal; line-height: normal; text-align: start;&quot; class=&quot;p1&quot;&gt;&lt;font face=&quot;Comic Sans MS&quot;&gt;Master_Secret =&amp;nbsp;&lt;/font&gt;&lt;/p&gt;&lt;p style=&quot;text-align: start; margin: 0px; font-variant-numeric: normal; font-variant-east-asian: normal; font-variant-alternates: normal; font-size-adjust: none; font-kerning: auto; font-optical-sizing: auto; font-feature-settings: normal; font-variation-settings: normal; font-variant-position: normal; font-stretch: normal; line-height: normal;&quot; class=&quot;p1&quot;&gt;&lt;span style=&quot;background-color: initial; text-align: center;&quot;&gt;&lt;font face=&quot;Comic Sans MS&quot;&gt;HMAC&lt;/font&gt;&lt;/span&gt;&lt;font face=&quot;Comic Sans MS&quot;&gt;(Salt=Handshake_Secret, Input_Key_Material=&quot;&quot;)&lt;/font&gt;&lt;br&gt;&lt;/p&gt;" style="text;html=1;align=center;verticalAlign=middle;whiteSpace=wrap;rounded=0;fontSize=16;" vertex="1" parent="1">
          <mxGeometry x="134" y="709" width="439" height="41" as="geometry" />
        </mxCell>
        <mxCell id="-IRD3xmq3QLjEIi70Ust-36" value="" style="endArrow=classic;html=1;rounded=0;sketch=1;curveFitting=1;jiggle=2;" edge="1" parent="1">
          <mxGeometry width="50" height="50" relative="1" as="geometry">
            <mxPoint x="-115" y="858" as="sourcePoint" />
            <mxPoint x="-113" y="907" as="targetPoint" />
            <Array as="points">
              <mxPoint x="-276" y="860" />
              <mxPoint x="-276" y="907" />
            </Array>
          </mxGeometry>
        </mxCell>
        <mxCell id="-IRD3xmq3QLjEIi70Ust-37" value="&lt;p style=&quot;text-align: start; margin: 0px; font-variant-numeric: normal; font-variant-east-asian: normal; font-variant-alternates: normal; font-size-adjust: none; font-kerning: auto; font-optical-sizing: auto; font-feature-settings: normal; font-variation-settings: normal; font-variant-position: normal; font-stretch: normal; line-height: normal;&quot; class=&quot;p1&quot;&gt;&lt;span style=&quot;background-color: initial; text-align: center;&quot;&gt;&lt;font face=&quot;Comic Sans MS&quot;&gt;Client_Application_Traffic_Secret&lt;/font&gt;&lt;/span&gt;&lt;font face=&quot;Comic Sans MS&quot;&gt;&amp;nbsp;=&amp;nbsp;&lt;/font&gt;&lt;/p&gt;&lt;p style=&quot;text-align: center; margin: 0px; font-variant-numeric: normal; font-variant-east-asian: normal; font-variant-alternates: normal; font-size-adjust: none; font-kerning: auto; font-optical-sizing: auto; font-feature-settings: normal; font-variation-settings: normal; font-variant-position: normal; font-stretch: normal; line-height: normal;&quot; class=&quot;p1&quot;&gt;&lt;font face=&quot;Comic Sans MS&quot;&gt;HMAC(Master_Secret, &quot;tls13 c ap traffic&quot; || Hash(Application_Context))&lt;/font&gt;&lt;br&gt;&lt;/p&gt;" style="text;html=1;align=center;verticalAlign=middle;whiteSpace=wrap;rounded=0;fontSize=16;" vertex="1" parent="1">
          <mxGeometry x="-675" y="811" width="555" height="41" as="geometry" />
        </mxCell>
        <mxCell id="-IRD3xmq3QLjEIi70Ust-38" value="&lt;div style=&quot;text-align: start;&quot;&gt;&lt;span style=&quot;font-family: &amp;quot;Comic Sans MS&amp;quot;; font-size: 16px; background-color: initial; text-align: center;&quot;&gt;Application_Context&lt;/span&gt;&lt;font face=&quot;Comic Sans MS&quot;&gt;&lt;span style=&quot;font-size: 15px;&quot;&gt;&amp;nbsp;= ClientHello || ServerHello || ... || Finished&lt;/span&gt;&lt;/font&gt;&lt;/div&gt;&lt;div style=&quot;text-align: start;&quot;&gt;&lt;br&gt;&lt;/div&gt;" style="text;html=1;align=center;verticalAlign=middle;whiteSpace=wrap;rounded=0;" vertex="1" parent="1">
          <mxGeometry x="-654" y="233" width="494" height="28" as="geometry" />
        </mxCell>
        <mxCell id="-IRD3xmq3QLjEIi70Ust-41" value="" style="endArrow=classic;html=1;rounded=0;sketch=1;curveFitting=1;jiggle=2;" edge="1" parent="1">
          <mxGeometry width="50" height="50" relative="1" as="geometry">
            <mxPoint x="134" y="857" as="sourcePoint" />
            <mxPoint x="134" y="906" as="targetPoint" />
            <Array as="points">
              <mxPoint x="295" y="859" />
              <mxPoint x="295" y="906" />
            </Array>
          </mxGeometry>
        </mxCell>
        <mxCell id="-IRD3xmq3QLjEIi70Ust-42" value="&lt;p style=&quot;text-align: start; margin: 0px; font-variant-numeric: normal; font-variant-east-asian: normal; font-variant-alternates: normal; font-size-adjust: none; font-kerning: auto; font-optical-sizing: auto; font-feature-settings: normal; font-variation-settings: normal; font-variant-position: normal; font-stretch: normal; line-height: normal;&quot; class=&quot;p1&quot;&gt;&lt;span style=&quot;background-color: initial; text-align: center;&quot;&gt;&lt;font face=&quot;Comic Sans MS&quot;&gt;Server_Application_Traffic_Secret&lt;/font&gt;&lt;/span&gt;&lt;font face=&quot;Comic Sans MS&quot;&gt;&amp;nbsp;=&amp;nbsp;&lt;/font&gt;&lt;/p&gt;&lt;p style=&quot;text-align: center; margin: 0px; font-variant-numeric: normal; font-variant-east-asian: normal; font-variant-alternates: normal; font-size-adjust: none; font-kerning: auto; font-optical-sizing: auto; font-feature-settings: normal; font-variation-settings: normal; font-variant-position: normal; font-stretch: normal; line-height: normal;&quot; class=&quot;p1&quot;&gt;&lt;font face=&quot;Comic Sans MS&quot;&gt;HMAC(Master_Secret, &quot;tls13 s ap traffic&quot; || Hash(Application_Context))&lt;/font&gt;&lt;br&gt;&lt;/p&gt;" style="text;html=1;align=center;verticalAlign=middle;whiteSpace=wrap;rounded=0;fontSize=16;" vertex="1" parent="1">
          <mxGeometry x="136" y="811" width="555" height="41" as="geometry" />
        </mxCell>
        <mxCell id="-IRD3xmq3QLjEIi70Ust-43" value="" style="endArrow=none;dashed=1;html=1;dashPattern=1 3;strokeWidth=2;rounded=0;" edge="1" parent="1">
          <mxGeometry width="50" height="50" relative="1" as="geometry">
            <mxPoint x="-116" y="988" as="sourcePoint" />
            <mxPoint x="136" y="988" as="targetPoint" />
          </mxGeometry>
        </mxCell>
        <mxCell id="-IRD3xmq3QLjEIi70Ust-45" value="&lt;p class=&quot;p1&quot; style=&quot;margin: 0px; font-variant-numeric: normal; font-variant-east-asian: normal; font-variant-alternates: normal; font-size-adjust: none; font-kerning: auto; font-optical-sizing: auto; font-feature-settings: normal; font-variation-settings: normal; font-variant-position: normal; font-stretch: normal; line-height: normal; text-align: start;&quot;&gt;&lt;font face=&quot;Comic Sans MS&quot; color=&quot;#1f2328&quot;&gt;&lt;span style=&quot;font-size: 15px;&quot;&gt;Application Data&lt;/span&gt;&lt;/font&gt;&lt;br&gt;&lt;/p&gt;" style="text;html=1;align=center;verticalAlign=middle;whiteSpace=wrap;rounded=0;fontSize=16;" vertex="1" parent="1">
          <mxGeometry x="-116" y="957" width="247" height="30" as="geometry" />
        </mxCell>
        <mxCell id="-IRD3xmq3QLjEIi70Ust-46" value="&lt;font face=&quot;Comic Sans MS&quot;&gt;NOT RTT-0 handshake:&lt;br&gt;Assume PSK = 0x00 * Hash.length&lt;/font&gt;" style="text;html=1;align=center;verticalAlign=middle;whiteSpace=wrap;rounded=0;" vertex="1" parent="1">
          <mxGeometry x="-540" y="25" width="195" height="31" as="geometry" />
        </mxCell>
        <mxCell id="-IRD3xmq3QLjEIi70Ust-47" value="&lt;p style=&quot;margin: 0px; font-variant-numeric: normal; font-variant-east-asian: normal; font-variant-alternates: normal; font-size-adjust: none; font-kerning: auto; font-optical-sizing: auto; font-feature-settings: normal; font-variation-settings: normal; font-variant-position: normal; font-stretch: normal; line-height: normal; text-align: start;&quot; class=&quot;p1&quot;&gt;&lt;font face=&quot;Comic Sans MS&quot; color=&quot;#0e0e0e&quot;&gt;&lt;span style=&quot;font-size: 15px;&quot;&gt;DH_shared_secret&lt;/span&gt;&lt;/font&gt;&lt;br&gt;&lt;/p&gt;" style="text;html=1;align=center;verticalAlign=middle;whiteSpace=wrap;rounded=0;fontSize=16;" vertex="1" parent="1">
          <mxGeometry x="-345" y="329" width="154" height="22" as="geometry" />
        </mxCell>
        <mxCell id="-IRD3xmq3QLjEIi70Ust-48" value="&lt;p style=&quot;margin: 0px; font-variant-numeric: normal; font-variant-east-asian: normal; font-variant-alternates: normal; font-size-adjust: none; font-kerning: auto; font-optical-sizing: auto; font-feature-settings: normal; font-variation-settings: normal; font-variant-position: normal; font-stretch: normal; line-height: normal; text-align: start;&quot; class=&quot;p1&quot;&gt;&lt;font face=&quot;Comic Sans MS&quot; color=&quot;#0e0e0e&quot;&gt;&lt;span style=&quot;font-size: 15px;&quot;&gt;DH_shared_secret&lt;/span&gt;&lt;/font&gt;&lt;br&gt;&lt;/p&gt;" style="text;html=1;align=center;verticalAlign=middle;whiteSpace=wrap;rounded=0;fontSize=16;" vertex="1" parent="1">
          <mxGeometry x="134" y="285" width="154" height="22" as="geometry" />
        </mxCell>
        <mxCell id="-IRD3xmq3QLjEIi70Ust-49" value="&lt;u&gt;&lt;i&gt;&lt;font face=&quot;Comic Sans MS&quot;&gt;YiMing LI&lt;/font&gt;&lt;/i&gt;&lt;/u&gt;" style="text;html=1;align=center;verticalAlign=middle;whiteSpace=wrap;rounded=0;" vertex="1" parent="1">
          <mxGeometry x="438" y="2" width="60" height="30" as="geometry" />
        </mxCell>
        <mxCell id="-IRD3xmq3QLjEIi70Ust-50" value="&lt;font face=&quot;Comic Sans MS&quot; style=&quot;font-size: 23px;&quot;&gt;TLS1.3&amp;nbsp;&lt;/font&gt;" style="text;html=1;align=center;verticalAlign=middle;whiteSpace=wrap;rounded=0;" vertex="1" parent="1">
          <mxGeometry x="-20.5" y="-77" width="60" height="30" as="geometry" />
        </mxCell>
      </root>
    </mxGraphModel>
  </diagram>
</mxfile>
